<svg width="30" height="30" viewBox="0 0 30 30" fill="none" xmlns="http://www.w3.org/2000/svg">
<path d="M30 15C30 6.71573 23.2843 0 15 0C6.71573 0 0 6.71573 0 15C0 23.2843 6.71573 30 15 30C23.2843 30 30 23.2843 30 15Z" fill="white"/>
<path fill-rule="evenodd" clip-rule="evenodd" d="M22.3406 15.1704C22.3406 14.6386 22.2929 14.1273 22.2043 13.6364H15.1406V16.5375H19.177C19.0031 17.475 18.4747 18.2693 17.6804 18.8011V20.683H20.1043C21.5225 19.3773 22.3406 17.4545 22.3406 15.1704Z" fill="#4285F4"/>
<path fill-rule="evenodd" clip-rule="evenodd" d="M15.1403 22.5C17.1653 22.5 18.863 21.8284 20.1039 20.683L17.6801 18.8011C17.0085 19.2511 16.1494 19.517 15.1403 19.517C13.1869 19.517 11.5334 18.1977 10.9437 16.425H8.43799V18.3682C9.67208 20.8193 12.2085 22.5 15.1403 22.5Z" fill="#34A853"/>
<path fill-rule="evenodd" clip-rule="evenodd" d="M10.944 16.425C10.794 15.975 10.7088 15.4943 10.7088 15C10.7088 14.5056 10.794 14.025 10.944 13.575V11.6318H8.43835C7.9304 12.6443 7.64062 13.7897 7.64062 15C7.64062 16.2102 7.9304 17.3557 8.43835 18.3682L10.944 16.425Z" fill="#FBBC05"/>
<path fill-rule="evenodd" clip-rule="evenodd" d="M15.1403 10.483C16.2414 10.483 17.2301 10.8614 18.0073 11.6046L20.1585 9.45341C18.8596 8.24318 17.1619 7.5 15.1403 7.5C12.2085 7.5 9.67208 9.18069 8.43799 11.6318L10.9437 13.575C11.5334 11.8023 13.1869 10.483 15.1403 10.483Z" fill="#EA4335"/>
</svg>
